<svg width="59" height="59" viewBox="0 0 59 59" fill="none" xmlns="http://www.w3.org/2000/svg">
<g clip-path="url(#clip0_17_148)">
<g filter="url(#filter0_ii_17_148)">
<path d="M9.75 19.5C9.75 16.9141 10.7772 14.4342 12.6057 12.6057C14.4342 10.7772 16.9141 9.75 19.5 9.75H39C41.5859 9.75 44.0658 10.7772 45.8943 12.6057C47.7228 14.4342 48.75 16.9141 48.75 19.5V39C48.75 41.5859 47.7228 44.0658 45.8943 45.8943C44.0658 47.7228 41.5859 48.75 39 48.75H19.5C16.9141 48.75 14.4342 47.7228 12.6057 45.8943C10.7772 44.0658 9.75 41.5859 9.75 39V19.5Z" stroke="#3B3B3B" stroke-width="4.8125" stroke-linecap="round" stroke-linejoin="round"/>
</g>
<g filter="url(#filter1_ii_17_148)">
<path d="M21.9375 29.25C21.9375 31.1894 22.7079 33.0494 24.0793 34.4207C25.4506 35.7921 27.3106 36.5625 29.25 36.5625C31.1894 36.5625 33.0494 35.7921 34.4207 34.4207C35.7921 33.0494 36.5625 31.1894 36.5625 29.25C36.5625 27.3106 35.7921 25.4506 34.4207 24.0793C33.0494 22.7079 31.1894 21.9375 29.25 21.9375C27.3106 21.9375 25.4506 22.7079 24.0793 24.0793C22.7079 25.4506 21.9375 27.3106 21.9375 29.25Z" stroke="#3B3B3B" stroke-width="4.8125" stroke-linecap="round" stroke-linejoin="round"/>
</g>
<g filter="url(#filter2_ii_17_148)">
<path d="M40.2188 18.2812V18.3059" stroke="#3B3B3B" stroke-width="4.8125" stroke-linecap="round" stroke-linejoin="round"/>
</g>
</g>
<defs>
<filter id="filter0_ii_17_148" x="5.34375" y="5.34375" width="46.8125" height="46.8125" filterUnits="userSpaceOnUse" color-interpolation-filters="sRGB">
<feFlood flood-opacity="0" result="BackgroundImageFix"/>
<feBlend mode="normal" in="SourceGraphic" in2="BackgroundImageFix" result="shape"/>
<feColorMatrix in="SourceAlpha" type="matrix" values="0 0 0 0 0 0 0 0 0 0 0 0 0 0 0 0 0 0 127 0" result="hardAlpha"/>
<feOffset dx="-2" dy="-2"/>
<feGaussianBlur stdDeviation="2"/>
<feComposite in2="hardAlpha" operator="arithmetic" k2="-1" k3="1"/>
<feColorMatrix type="matrix" values="0 0 0 0 0.231373 0 0 0 0 0.231373 0 0 0 0 0.231373 0 0 0 1 0"/>
<feBlend mode="normal" in2="shape" result="effect1_innerShadow_17_148"/>
<feColorMatrix in="SourceAlpha" type="matrix" values="0 0 0 0 0 0 0 0 0 0 0 0 0 0 0 0 0 0 127 0" result="hardAlpha"/>
<feOffset dx="1" dy="1"/>
<feGaussianBlur stdDeviation="1"/>
<feComposite in2="hardAlpha" operator="arithmetic" k2="-1" k3="1"/>
<feColorMatrix type="matrix" values="0 0 0 0 0 0 0 0 0 0 0 0 0 0 0 0 0 0 1 0"/>
<feBlend mode="normal" in2="effect1_innerShadow_17_148" result="effect2_innerShadow_17_148"/>
</filter>
<filter id="filter1_ii_17_148" x="17.5312" y="17.5312" width="22.4375" height="22.4375" filterUnits="userSpaceOnUse" color-interpolation-filters="sRGB">
<feFlood flood-opacity="0" result="BackgroundImageFix"/>
<feBlend mode="normal" in="SourceGraphic" in2="BackgroundImageFix" result="shape"/>
<feColorMatrix in="SourceAlpha" type="matrix" values="0 0 0 0 0 0 0 0 0 0 0 0 0 0 0 0 0 0 127 0" result="hardAlpha"/>
<feOffset dx="-2" dy="-2"/>
<feGaussianBlur stdDeviation="2"/>
<feComposite in2="hardAlpha" operator="arithmetic" k2="-1" k3="1"/>
<feColorMatrix type="matrix" values="0 0 0 0 0.231373 0 0 0 0 0.231373 0 0 0 0 0.231373 0 0 0 1 0"/>
<feBlend mode="normal" in2="shape" result="effect1_innerShadow_17_148"/>
<feColorMatrix in="SourceAlpha" type="matrix" values="0 0 0 0 0 0 0 0 0 0 0 0 0 0 0 0 0 0 127 0" result="hardAlpha"/>
<feOffset dx="1" dy="1"/>
<feGaussianBlur stdDeviation="1"/>
<feComposite in2="hardAlpha" operator="arithmetic" k2="-1" k3="1"/>
<feColorMatrix type="matrix" values="0 0 0 0 0 0 0 0 0 0 0 0 0 0 0 0 0 0 1 0"/>
<feBlend mode="normal" in2="effect1_innerShadow_17_148" result="effect2_innerShadow_17_148"/>
</filter>
<filter id="filter2_ii_17_148" x="35.8125" y="13.875" width="7.8125" height="7.83716" filterUnits="userSpaceOnUse" color-interpolation-filters="sRGB">
<feFlood flood-opacity="0" result="BackgroundImageFix"/>
<feBlend mode="normal" in="SourceGraphic" in2="BackgroundImageFix" result="shape"/>
<feColorMatrix in="SourceAlpha" type="matrix" values="0 0 0 0 0 0 0 0 0 0 0 0 0 0 0 0 0 0 127 0" result="hardAlpha"/>
<feOffset dx="-2" dy="-2"/>
<feGaussianBlur stdDeviation="2"/>
<feComposite in2="hardAlpha" operator="arithmetic" k2="-1" k3="1"/>
<feColorMatrix type="matrix" values="0 0 0 0 0.231373 0 0 0 0 0.231373 0 0 0 0 0.231373 0 0 0 1 0"/>
<feBlend mode="normal" in2="shape" result="effect1_innerShadow_17_148"/>
<feColorMatrix in="SourceAlpha" type="matrix" values="0 0 0 0 0 0 0 0 0 0 0 0 0 0 0 0 0 0 127 0" result="hardAlpha"/>
<feOffset dx="1" dy="1"/>
<feGaussianBlur stdDeviation="1"/>
<feComposite in2="hardAlpha" operator="arithmetic" k2="-1" k3="1"/>
<feColorMatrix type="matrix" values="0 0 0 0 0 0 0 0 0 0 0 0 0 0 0 0 0 0 1 0"/>
<feBlend mode="normal" in2="effect1_innerShadow_17_148" result="effect2_innerShadow_17_148"/>
</filter>
<clipPath id="clip0_17_148">
<rect width="58.5" height="58.5" fill="white"/>
</clipPath>
</defs>
</svg>
