<svg width="112" height="112" viewBox="0 0 112 112" fill="none" xmlns="http://www.w3.org/2000/svg">
<path d="M82.5 50C82.5 69.0606 67.2709 84.5 48.5 84.5C29.7291 84.5 14.5 69.0606 14.5 50C14.5 30.9394 29.7291 15.5 48.5 15.5C67.2709 15.5 82.5 30.9394 82.5 50Z" stroke="#3B3B3B"/>
<circle cx="51" cy="51" r="50.5" stroke="#3B3B3B"/>
<circle cx="68.5" cy="70.5" r="41" stroke="#3B3B3B"/>
<path d="M72.5 46C72.5 58.969 61.7646 69.5 48.5 69.5C35.2354 69.5 24.5 58.969 24.5 46C24.5 33.031 35.2354 22.5 48.5 22.5C61.7646 22.5 72.5 33.031 72.5 46Z" stroke="#3B3B3B"/>
<circle cx="54" cy="50" r="5" fill="#D9D9D9"/>
<circle cx="109.5" cy="70.5" r="2.5" fill="#D9D9D9"/>
<circle cx="17.5" cy="13.5" r="3.5" fill="#D9D9D9"/>
<circle cx="36" cy="26" r="3" fill="#D9D9D9"/>
<circle cx="56" cy="84" r="2" fill="#D9D9D9"/>
</svg>
